<svg width="30" height="27" viewBox="0 0 30 27" fill="none" xmlns="http://www.w3.org/2000/svg">
<path d="M1.5192 0.877807C1.32072 0.874391 1.12365 0.919012 0.939461 1.00908C0.755271 1.09914 0.587628 1.23285 0.446275 1.40244C0.304922 1.57202 0.192677 1.7741 0.116065 1.99693C0.0394526 2.21977 0 2.4589 0 2.70045C0 2.94199 0.0394526 3.18113 0.116065 3.40396C0.192677 3.62679 0.304922 3.82887 0.446275 3.99846C0.587628 4.16805 0.755271 4.30176 0.939461 4.39182C1.12365 4.48189 1.32072 4.52651 1.5192 4.52309H28.4808C28.6793 4.52651 28.8763 4.48189 29.0605 4.39182C29.2447 4.30176 29.4124 4.16805 29.5537 3.99846C29.6951 3.82887 29.8073 3.62679 29.8839 3.40396C29.9606 3.18113 30 2.94199 30 2.70045C30 2.4589 29.9606 2.21977 29.8839 1.99693C29.8073 1.7741 29.6951 1.57202 29.5537 1.40244C29.4124 1.23285 29.2447 1.09914 29.0605 1.00908C28.8763 0.919012 28.6793 0.874391 28.4808 0.877807H1.5192ZM1.5192 11.8137C1.32072 11.8102 1.12365 11.8549 0.939461 11.9449C0.755271 12.035 0.587628 12.1687 0.446275 12.3383C0.304922 12.5079 0.192677 12.71 0.116065 12.9328C0.0394526 13.1556 0 13.3948 0 13.6363C0 13.8778 0.0394526 14.117 0.116065 14.3398C0.192677 14.5626 0.304922 14.7647 0.446275 14.9343C0.587628 15.1039 0.755271 15.2376 0.939461 15.3277C1.12365 15.4177 1.32072 15.4624 1.5192 15.4589H28.4808C28.6793 15.4624 28.8763 15.4177 29.0605 15.3277C29.2447 15.2376 29.4124 15.1039 29.5537 14.9343C29.6951 14.7647 29.8073 14.5626 29.8839 14.3398C29.9606 14.117 30 13.8778 30 13.6363C30 13.3948 29.9606 13.1556 29.8839 12.9328C29.8073 12.71 29.6951 12.5079 29.5537 12.3383C29.4124 12.1687 29.2447 12.035 29.0605 11.9449C28.8763 11.8549 28.6793 11.8102 28.4808 11.8137H1.5192ZM1.5192 22.7495C1.32072 22.7461 1.12365 22.7907 0.939461 22.8808C0.755271 22.9708 0.587628 23.1045 0.446275 23.2741C0.304922 23.4437 0.192677 23.6458 0.116065 23.8686C0.0394526 24.0915 0 24.3306 0 24.5722C0 24.8137 0.0394526 25.0528 0.116065 25.2757C0.192677 25.4985 0.304922 25.7006 0.446275 25.8702C0.587628 26.0397 0.755271 26.1735 0.939461 26.2635C1.12365 26.3536 1.32072 26.3982 1.5192 26.3948H28.4808C28.6793 26.3982 28.8763 26.3536 29.0605 26.2635C29.2447 26.1735 29.4124 26.0397 29.5537 25.8702C29.6951 25.7006 29.8073 25.4985 29.8839 25.2757C29.9606 25.0528 30 24.8137 30 24.5722C30 24.3306 29.9606 24.0915 29.8839 23.8686C29.8073 23.6458 29.6951 23.4437 29.5537 23.2741C29.4124 23.1045 29.2447 22.9708 29.0605 22.8808C28.8763 22.7907 28.6793 22.7461 28.4808 22.7495H1.5192Z" fill="#4F4F4F"/>
</svg>
